<svg width="101" height="101" viewBox="0 0 101 101" fill="none" xmlns="http://www.w3.org/2000/svg">
<circle cx="50.5" cy="50.5" r="50.5" fill="white"/>
<path d="M53.6432 34.6433C54.2683 34.0184 55.116 33.6674 55.9998 33.6674C56.8837 33.6674 57.7314 34.0184 58.3565 34.6433L73.3565 49.6433C73.9814 50.2684 74.3325 51.1161 74.3325 52C74.3325 52.8839 73.9814 53.7316 73.3565 54.3566L58.3565 69.3566C57.7278 69.9638 56.8858 70.2998 56.0118 70.2922C55.1378 70.2846 54.3018 69.9341 53.6838 69.316C53.0657 68.698 52.7152 67.862 52.7076 66.988C52.7 66.114 53.036 65.272 53.6432 64.6433L62.6665 55.3333H30.9998C30.1158 55.3333 29.2679 54.9821 28.6428 54.357C28.0177 53.7319 27.6665 52.884 27.6665 52C27.6665 51.1159 28.0177 50.2681 28.6428 49.643C29.2679 49.0178 30.1158 48.6666 30.9998 48.6666H62.6665L53.6432 39.3566C53.0183 38.7316 52.6672 37.8839 52.6672 37C52.6672 36.1161 53.0183 35.2684 53.6432 34.6433Z" fill="black"/>
</svg>
