<svg width="89" height="89" viewBox="0 0 89 89" fill="none" xmlns="http://www.w3.org/2000/svg">
<path d="M83.4375 41.7188H47.2812V5.5625H41.7188V41.7188H5.5625V47.2812H41.7188V83.4375H47.2812V47.2812H83.4375V41.7188Z" fill="white" fill-opacity="0.65"/>
<path d="M13.9063 83.4375C12.256 83.4375 10.6428 82.9482 9.27071 82.0313C7.89859 81.1145 6.82915 79.8114 6.19763 78.2868C5.56612 76.7621 5.40088 75.0845 5.72283 73.466C6.04477 71.8474 6.83944 70.3607 8.00633 69.1938C9.17323 68.0269 10.6599 67.2323 12.2785 66.9103C13.897 66.5884 15.5746 66.7536 17.0993 67.3851C18.6239 68.0167 19.927 69.0861 20.8438 70.4582C21.7607 71.8303 22.25 73.4435 22.25 75.0938C22.2478 77.306 21.368 79.427 19.8037 80.9912C18.2395 82.5555 16.1185 83.4353 13.9063 83.4375ZM13.9063 72.3125C13.3562 72.3125 12.8184 72.4756 12.3611 72.7812C11.9037 73.0868 11.5472 73.5212 11.3367 74.0294C11.1262 74.5376 11.0711 75.0968 11.1784 75.6364C11.2858 76.1759 11.5506 76.6714 11.9396 77.0604C12.3286 77.4494 12.8241 77.7142 13.3637 77.8216C13.9032 77.9289 14.4624 77.8738 14.9706 77.6633C15.4788 77.4528 15.9132 77.0963 16.2188 76.6389C16.5244 76.1816 16.6875 75.6438 16.6875 75.0938C16.6875 74.3561 16.3945 73.6487 15.8729 73.1271C15.3513 72.6055 14.6439 72.3125 13.9063 72.3125ZM22.25 22.25C20.5998 22.25 18.9866 21.7607 17.6145 20.8438C16.2423 19.927 15.1729 18.6239 14.5414 17.0993C13.9099 15.5746 13.7446 13.897 14.0666 12.2785C14.3885 10.6599 15.1832 9.17323 16.3501 8.00633C17.517 6.83944 19.0037 6.04477 20.6222 5.72283C22.2407 5.40088 23.9184 5.56612 25.443 6.19763C26.9676 6.82915 28.2708 7.89859 29.1876 9.27071C30.1044 10.6428 30.5938 12.256 30.5938 13.9063C30.5915 16.1185 29.7118 18.2395 28.1475 19.8037C26.5832 21.368 24.4622 22.2478 22.25 22.25ZM22.25 11.125C21.6999 11.125 21.1622 11.2881 20.7048 11.5937C20.2475 11.8993 19.891 12.3337 19.6805 12.8419C19.47 13.3501 19.4149 13.9093 19.5222 14.4488C19.6295 14.9884 19.8944 15.4839 20.2834 15.8729C20.6723 16.2619 21.1679 16.5267 21.7074 16.6341C22.2469 16.7414 22.8061 16.6863 23.3143 16.4758C23.8225 16.2653 24.2569 15.9088 24.5625 15.4514C24.8681 14.9941 25.0313 14.4563 25.0313 13.9063C25.0313 13.1686 24.7382 12.4612 24.2166 11.9396C23.6951 11.418 22.9876 11.125 22.25 11.125ZM61.1875 36.1563C59.5373 36.1563 57.9241 35.6669 56.552 34.7501C55.1798 33.8333 54.1104 32.5301 53.4789 31.0055C52.8474 29.4809 52.6821 27.8032 53.0041 26.1847C53.326 24.5662 54.1207 23.0795 55.2876 21.9126C56.4545 20.7457 57.9412 19.951 59.5597 19.6291C61.1782 19.3071 62.8559 19.4724 64.3805 20.1039C65.9051 20.7354 67.2083 21.8048 68.1251 23.177C69.0419 24.5491 69.5313 26.1623 69.5313 27.8125C69.529 30.0247 68.6493 32.1457 67.085 33.71C65.5207 35.2743 63.3997 36.154 61.1875 36.1563ZM61.1875 25.0313C60.6374 25.0313 60.0997 25.1944 59.6423 25.5C59.185 25.8056 58.8285 26.24 58.618 26.7482C58.4075 27.2564 58.3524 27.8156 58.4597 28.3551C58.567 28.8946 58.8319 29.3902 59.2209 29.7791C59.6098 30.1681 60.1054 30.433 60.6449 30.5403C61.1844 30.6476 61.7436 30.5925 62.2518 30.382C62.76 30.1715 63.1944 29.8151 63.5 29.3577C63.8056 28.9003 63.9688 28.3626 63.9688 27.8125C63.9688 27.0749 63.6757 26.3674 63.1541 25.8459C62.6326 25.3243 61.9251 25.0313 61.1875 25.0313Z" fill="white" fill-opacity="0.65"/>
<path d="M30.5938 36.1562C33.6658 36.1562 36.1562 33.6658 36.1562 30.5938C36.1562 27.5217 33.6658 25.0312 30.5938 25.0312C27.5217 25.0312 25.0312 27.5217 25.0312 30.5938C25.0312 33.6658 27.5217 36.1562 30.5938 36.1562Z" fill="white" fill-opacity="0.65"/>
<path d="M30.5938 63.9688C33.6658 63.9688 36.1562 61.4783 36.1562 58.4062C36.1562 55.3342 33.6658 52.8438 30.5938 52.8438C27.5217 52.8438 25.0312 55.3342 25.0312 58.4062C25.0312 61.4783 27.5217 63.9688 30.5938 63.9688Z" fill="white" fill-opacity="0.65"/>
<path d="M58.4062 63.9688C61.4783 63.9688 63.9688 61.4783 63.9688 58.4062C63.9688 55.3342 61.4783 52.8438 58.4062 52.8438C55.3342 52.8438 52.8438 55.3342 52.8438 58.4062C52.8438 61.4783 55.3342 63.9688 58.4062 63.9688Z" fill="white" fill-opacity="0.65"/>
<path d="M61.1875 83.4375C64.2596 83.4375 66.75 80.9471 66.75 77.875C66.75 74.8029 64.2596 72.3125 61.1875 72.3125C58.1154 72.3125 55.625 74.8029 55.625 77.875C55.625 80.9471 58.1154 83.4375 61.1875 83.4375Z" fill="white" fill-opacity="0.65"/>
<path d="M77.875 72.3125C80.9471 72.3125 83.4375 69.8221 83.4375 66.75C83.4375 63.6779 80.9471 61.1875 77.875 61.1875C74.8029 61.1875 72.3125 63.6779 72.3125 66.75C72.3125 69.8221 74.8029 72.3125 77.875 72.3125Z" fill="white" fill-opacity="0.65"/>
<path d="M11.125 36.1562C14.1971 36.1562 16.6875 33.6658 16.6875 30.5938C16.6875 27.5217 14.1971 25.0312 11.125 25.0312C8.05292 25.0312 5.5625 27.5217 5.5625 30.5938C5.5625 33.6658 8.05292 36.1562 11.125 36.1562Z" fill="white" fill-opacity="0.65"/>
<path d="M77.875 16.6875C80.9471 16.6875 83.4375 14.1971 83.4375 11.125C83.4375 8.05292 80.9471 5.5625 77.875 5.5625C74.8029 5.5625 72.3125 8.05292 72.3125 11.125C72.3125 14.1971 74.8029 16.6875 77.875 16.6875Z" fill="white" fill-opacity="0.65"/>
</svg>
