<svg width="51" height="51" viewBox="0 0 51 51" fill="none" xmlns="http://www.w3.org/2000/svg">
<path d="M6.375 12.2188C6.375 10.6689 6.99068 9.18251 8.08659 8.08659C9.18251 6.99068 10.6689 6.375 12.2188 6.375H38.7812C40.3311 6.375 41.8175 6.99068 42.9134 8.08659C44.0093 9.18251 44.625 10.6689 44.625 12.2188V25.5468C43.3194 24.7119 41.8827 24.1028 40.375 23.7447V12.2188C40.375 11.7961 40.2071 11.3907 39.9082 11.0918C39.6093 10.7929 39.2039 10.625 38.7812 10.625H12.2188C11.7961 10.625 11.3907 10.7929 11.0918 11.0918C10.7929 11.3907 10.625 11.7961 10.625 12.2188V38.7812C10.625 39.661 11.339 40.375 12.2188 40.375H23.7447C24.106 41.905 24.7222 43.3394 25.5468 44.625H12.2188C10.6689 44.625 9.18251 44.0093 8.08659 42.9134C6.99068 41.8175 6.375 40.3311 6.375 38.7812V12.2188ZM48.875 37.1875C48.875 34.0878 47.6436 31.115 45.4518 28.9232C43.26 26.7314 40.2872 25.5 37.1875 25.5C34.0878 25.5 31.115 26.7314 28.9232 28.9232C26.7314 31.115 25.5 34.0878 25.5 37.1875C25.5 40.2872 26.7314 43.26 28.9232 45.4518C31.115 47.6436 34.0878 48.875 37.1875 48.875C40.2872 48.875 43.26 47.6436 45.4518 45.4518C47.6436 43.26 48.875 40.2872 48.875 37.1875ZM38.25 38.25L38.2521 43.5689C38.2521 43.8507 38.1402 44.1209 37.9409 44.3202C37.7417 44.5194 37.4714 44.6314 37.1896 44.6314C36.9078 44.6314 36.6376 44.5194 36.4383 44.3202C36.2391 44.1209 36.1271 43.8507 36.1271 43.5689V38.25H30.804C30.5222 38.25 30.252 38.1381 30.0527 37.9388C29.8534 37.7395 29.7415 37.4693 29.7415 37.1875C29.7415 36.9057 29.8534 36.6355 30.0527 36.4362C30.252 36.2369 30.5222 36.125 30.804 36.125H36.125V30.8125C36.125 30.5307 36.2369 30.2605 36.4362 30.0612C36.6355 29.8619 36.9057 29.75 37.1875 29.75C37.4693 29.75 37.7395 29.8619 37.9388 30.0612C38.1381 30.2605 38.25 30.5307 38.25 30.8125V36.125H43.5561C43.8379 36.125 44.1082 36.2369 44.3074 36.4362C44.5067 36.6355 44.6186 36.9057 44.6186 37.1875C44.6186 37.4693 44.5067 37.7395 44.3074 37.9388C44.1082 38.1381 43.8379 38.25 43.5561 38.25H38.25Z" fill="white"/>
</svg>
