<svg width="89" height="89" viewBox="0 0 89 89" fill="none" xmlns="http://www.w3.org/2000/svg">
<path fill-rule="evenodd" clip-rule="evenodd" d="M43.5878 33.375L47.8153 22.0998L51.9316 11.125H30.5938C29.7993 11.1288 29.0239 11.3689 28.3662 11.8146C27.7085 12.2603 27.1983 12.8916 26.9003 13.6281L13.9787 45.9296C13.9186 46.0789 13.8962 46.2406 13.9131 46.4006C13.9301 46.5607 13.9861 46.7141 14.0761 46.8475C14.1661 46.9809 14.2875 47.0901 14.4295 47.1658C14.5716 47.2414 14.73 47.281 14.8909 47.2812H42.5087L38.437 58.4786L32.4183 75.027C32.2526 75.4863 32.2501 75.9887 32.4113 76.4497C32.5725 76.9107 32.8875 77.302 33.3034 77.558C33.7193 77.8139 34.2106 77.9188 34.6948 77.8549C35.1789 77.7911 35.6263 77.5625 35.9617 77.2075L74.6544 36.0951C74.8706 35.8659 75.015 35.5784 75.0696 35.2681C75.1243 34.9578 75.087 34.6383 74.9621 34.349C74.8373 34.0597 74.6305 33.8133 74.3672 33.6402C74.104 33.4672 73.7958 33.3749 73.4807 33.375H43.5878ZM58.7512 16.6875L60.0584 13.1998C60.4961 12.0336 60.6447 10.7788 60.4915 9.54261C60.3382 8.30645 59.8878 7.12583 59.1787 6.10177C58.4696 5.07772 57.5229 4.24074 56.4196 3.66245C55.3164 3.08417 54.0895 2.78181 52.8438 2.78125H30.5938C25.5542 2.78125 21.0263 5.85175 19.1518 10.5298L6.23009 42.8312C5.66373 44.2467 5.45292 45.7793 5.61609 47.2951C5.77926 48.8109 6.31144 50.2635 7.16607 51.526C8.0207 52.7885 9.17172 53.8222 10.5184 54.5368C11.8651 55.2514 13.3664 55.625 14.8909 55.625H30.5938L27.5623 63.9688L24.5752 72.1734C23.7493 74.439 23.7309 76.9202 24.523 79.1978C25.3151 81.4753 26.8692 83.4096 28.9227 84.6738C30.9761 85.9379 33.4031 86.4543 35.7933 86.1359C38.1836 85.8174 40.3906 84.6835 42.0415 82.9258L80.7342 41.8133C82.0668 40.3978 82.9559 38.6232 83.2918 36.7084C83.6277 34.7936 83.3957 32.8223 82.6244 31.0378C81.8531 29.2533 80.5762 27.7336 78.9514 26.6662C77.3265 25.5988 75.4248 25.0305 73.4807 25.0312H55.6251L58.7512 16.6875Z" fill="white" fill-opacity="0.65"/>
</svg>
