<svg width="51" height="51" viewBox="0 0 51 51" fill="none" xmlns="http://www.w3.org/2000/svg">
<path d="M20.1875 34C16.3271 34 13.0603 32.6627 10.387 29.988C7.71375 27.3133 6.37642 24.0465 6.375 20.1875C6.37358 16.3285 7.71092 13.0617 10.387 10.387C13.0631 7.71233 16.3299 6.375 20.1875 6.375C24.0451 6.375 27.3126 7.71233 29.9901 10.387C32.6676 13.0617 34.0043 16.3285 34 20.1875C34 21.7458 33.7521 23.2156 33.2563 24.5969C32.7604 25.9781 32.0875 27.2 31.2375 28.2625L43.1375 40.1625C43.5271 40.5521 43.7219 41.0479 43.7219 41.65C43.7219 42.2521 43.5271 42.7479 43.1375 43.1375C42.7479 43.5271 42.2521 43.7219 41.65 43.7219C41.0479 43.7219 40.5521 43.5271 40.1625 43.1375L28.2625 31.2375C27.2 32.0875 25.9781 32.7604 24.5969 33.2562C23.2156 33.7521 21.7458 34 20.1875 34ZM20.1875 29.75C22.8438 29.75 25.1019 28.8207 26.962 26.962C28.8221 25.1033 29.7514 22.8452 29.75 20.1875C29.7486 17.5298 28.8193 15.2724 26.962 13.4151C25.1048 11.5579 22.8466 10.6278 20.1875 10.625C17.5284 10.6222 15.271 11.5522 13.4151 13.4151C11.5593 15.278 10.6293 17.5355 10.625 20.1875C10.6208 22.8395 11.5508 25.0977 13.4151 26.962C15.2795 28.8263 17.5369 29.7557 20.1875 29.75Z" fill="white"/>
</svg>
