<svg width="89" height="89" viewBox="0 0 89 89" fill="none" xmlns="http://www.w3.org/2000/svg">
<path d="M40.1428 81.5834C38.4741 81.5834 37.0377 81.0272 35.8337 79.9147C34.6298 78.8022 33.9029 77.4424 33.6532 75.8355L32.8189 69.7167C32.0154 69.4077 31.2589 69.0369 30.5494 68.6042C29.8398 68.1716 29.1439 67.7081 28.4616 67.2136L22.7137 69.624C21.1685 70.3039 19.6234 70.3657 18.0782 69.8095C16.5331 69.2532 15.3279 68.2643 14.4626 66.8428L10.1053 59.2407C9.24004 57.8192 8.99282 56.3049 9.36365 54.698C9.73449 53.0911 10.5689 51.7622 11.8668 50.7115L16.7803 47.0032C16.7185 46.5706 16.6876 46.1528 16.6876 45.7498V43.2467C16.6876 42.8462 16.7185 42.4296 16.7803 41.997L11.8668 38.2886C10.5689 37.2379 9.73449 35.9091 9.36365 34.3022C8.99282 32.6952 9.24004 31.181 10.1053 29.7595L14.4626 22.1574C15.3279 20.7358 16.5331 19.747 18.0782 19.1907C19.6234 18.6345 21.1685 18.6963 22.7137 19.3761L28.4616 21.7865C29.1414 21.2921 29.8522 20.8286 30.5939 20.3959C31.3355 19.9633 32.0772 19.5924 32.8189 19.2834L33.6532 13.1647C33.9005 11.5577 34.6273 10.198 35.8337 9.0855C37.0402 7.973 38.4765 7.41675 40.1428 7.41675H48.8574C50.5261 7.41675 51.9637 7.973 53.1702 9.0855C54.3766 10.198 55.1022 11.5577 55.347 13.1647L56.1814 19.2834C56.9848 19.5924 57.7426 19.9633 58.4546 20.3959C59.1666 20.8286 59.8613 21.2921 60.5387 21.7865L66.2866 19.3761C67.8317 18.6963 69.3768 18.6345 70.922 19.1907C72.4671 19.747 73.6723 20.7358 74.5376 22.1574L78.8949 29.7595C79.7602 31.181 80.0074 32.6952 79.6366 34.3022C79.2657 35.9091 78.4314 37.2379 77.1334 38.2886L72.2199 41.997C72.2817 42.4296 72.3126 42.8474 72.3126 43.2504V45.7498C72.3126 46.1528 72.2508 46.5706 72.1272 47.0032L77.0407 50.7115C78.3387 51.7622 79.173 53.0911 79.5439 54.698C79.9147 56.3049 79.6675 57.8192 78.8022 59.2407L74.3522 66.8428C73.4869 68.2643 72.2817 69.2532 70.7366 69.8095C69.1914 70.3657 67.6463 70.3039 66.1012 69.624L60.5387 67.2136C59.8588 67.7081 59.148 68.1716 58.4064 68.6042C57.6647 69.0369 56.923 69.4077 56.1814 69.7167L55.347 75.8355C55.0998 77.4424 54.3742 78.8022 53.1702 79.9147C51.9662 81.0272 50.5286 81.5834 48.8574 81.5834H40.1428ZM44.6855 57.4792C48.2702 57.4792 51.3296 56.2122 53.8636 53.6782C56.3977 51.1442 57.6647 48.0848 57.6647 44.5001C57.6647 40.9154 56.3977 37.856 53.8636 35.322C51.3296 32.7879 48.2702 31.5209 44.6855 31.5209C41.039 31.5209 37.9636 32.7879 35.4592 35.322C32.9548 37.856 31.7039 40.9154 31.7064 44.5001C31.7088 48.0848 32.961 51.1442 35.4629 53.6782C37.9648 56.2122 41.039 57.4792 44.6855 57.4792Z" fill="white" fill-opacity="0.65"/>
</svg>
