<svg width="51" height="51" viewBox="0 0 51 51" fill="none" xmlns="http://www.w3.org/2000/svg">
<path d="M19.125 7.4375V43.5625M6.375 19.975C6.375 15.215 6.375 12.835 7.3015 11.016C8.11641 9.41669 9.41669 8.11641 11.016 7.3015C12.835 6.375 15.215 6.375 19.975 6.375H31.025C35.785 6.375 38.165 6.375 39.984 7.3015C41.5833 8.11641 42.8836 9.41669 43.6985 11.016C44.625 12.835 44.625 15.215 44.625 19.975V31.025C44.625 35.785 44.625 38.165 43.6985 39.984C42.8836 41.5833 41.5833 42.8836 39.984 43.6985C38.165 44.625 35.785 44.625 31.025 44.625H19.975C15.215 44.625 12.835 44.625 11.016 43.6985C9.41669 42.8836 8.11641 41.5833 7.3015 39.984C6.375 38.165 6.375 35.785 6.375 31.025V19.975Z" stroke="white" stroke-width="3.5" stroke-linecap="round" stroke-linejoin="round"/>
</svg>
